<svg width="96" height="21" viewBox="0 0 96 21" fill="none" xmlns="http://www.w3.org/2000/svg">
<path d="M14.5613 3.74419H10.2452V18.4843C10.2452 19.3347 10.0634 19.9607 9.69996 20.3741C9.3365 20.7875 8.87081 20.9883 8.29154 20.9883C7.71227 20.9883 7.22386 20.7757 6.8604 20.3623C6.49693 19.9489 6.30384 19.3229 6.30384 18.4843V3.74419H1.9877C1.31756 3.74419 0.806438 3.59065 0.488406 3.28356C0.170374 2.97647 0 2.56309 0 2.05521C0 1.54734 0.170375 1.11034 0.511123 0.81506C0.851871 0.519785 1.35163 0.354431 1.99906 0.354431H14.5613C15.2428 0.354431 15.7539 0.507976 16.0833 0.826873C16.4127 1.14577 16.5831 1.54734 16.5831 2.05521C16.5831 2.56309 16.4127 2.97647 16.072 3.28356C15.7312 3.59065 15.2314 3.74419 14.5499 3.74419H14.5613Z" fill="black"/>
<path d="M21.2398 15.5315V18.685C21.2398 19.4528 21.0694 20.0197 20.7173 20.4095C20.3652 20.7992 19.9336 20.9882 19.3997 20.9882C18.8659 20.9882 18.4456 20.7992 18.1049 20.4095C17.7641 20.0197 17.5938 19.4528 17.5938 18.6969V8.17325C17.5938 6.47247 18.1844 5.62207 19.3656 5.62207C19.9676 5.62207 20.3992 5.82286 20.6718 6.21262C20.9444 6.60238 21.0807 7.19293 21.1148 7.97246C21.5464 7.19293 22.0008 6.6142 22.4551 6.21262C22.9094 5.81105 23.5228 5.62207 24.2838 5.62207C25.0448 5.62207 25.7831 5.82286 26.51 6.21262C27.2369 6.60238 27.589 7.13388 27.589 7.7953C27.589 8.25593 27.4414 8.63387 27.1347 8.94096C26.828 9.24805 26.4986 9.38979 26.1465 9.38979C26.0102 9.38979 25.6922 9.30711 25.1811 9.12994C24.67 8.95278 24.2156 8.8701 23.8294 8.8701C23.2956 8.8701 22.864 9.01183 22.5232 9.30711C22.1825 9.60238 21.9212 10.0276 21.7395 10.6063C21.5578 11.1851 21.4215 11.8583 21.3533 12.6496C21.2852 13.441 21.2511 14.3976 21.2511 15.5315H21.2398Z" fill="black"/>
<path d="M38.0843 18.8504C37.2097 19.559 36.3578 20.0905 35.54 20.4449C34.7222 20.7992 33.8022 20.9764 32.7799 20.9764C31.8486 20.9764 31.0308 20.7874 30.3266 20.3976C29.6223 20.0079 29.0771 19.5 28.691 18.8386C28.3048 18.1771 28.123 17.4685 28.123 16.7126C28.123 15.6732 28.4411 14.7992 29.0658 14.0669C29.6905 13.3346 30.5651 12.8504 31.6668 12.6024C31.894 12.5433 32.4733 12.4252 33.3819 12.2244C34.2906 12.0236 35.0743 11.8583 35.7331 11.6929C36.3919 11.5275 37.0961 11.3386 37.8571 11.1023C37.8117 10.1102 37.6186 9.37794 37.2778 8.9055C36.9371 8.43306 36.2329 8.20865 35.1538 8.20865C34.2338 8.20865 33.5409 8.33857 33.0753 8.61022C32.6096 8.88188 32.212 9.28346 31.8826 9.81495C31.5532 10.3464 31.3147 10.7008 31.1784 10.8779C31.0421 11.0551 30.7468 11.1378 30.2925 11.1378C29.8836 11.1378 29.5315 10.996 29.2362 10.7244C28.9408 10.4527 28.7932 10.0984 28.7932 9.68503C28.7932 9.02361 29.0204 8.37401 29.4747 7.74803C29.929 7.12204 30.6332 6.60236 31.5873 6.20078C32.5414 5.79921 33.734 5.58661 35.1652 5.58661C36.7667 5.58661 38.0161 5.7874 38.9361 6.17716C39.8561 6.56692 40.4922 7.19291 40.8784 8.0433C41.2646 8.89369 41.4463 10.0157 41.4463 11.4213C41.4463 12.3071 41.4463 13.063 41.4463 13.6771C41.4463 14.2913 41.4463 14.9882 41.4236 15.7441C41.4236 16.4527 41.5372 17.1968 41.7643 17.9646C41.9915 18.7323 42.1051 19.2283 42.1051 19.4527C42.1051 19.8425 41.9347 20.1968 41.5826 20.5157C41.2305 20.8346 40.833 20.9882 40.39 20.9882C40.0152 20.9882 39.6517 20.811 39.2882 20.4449C38.9248 20.0787 38.5386 19.5472 38.1297 18.8622L38.0843 18.8504ZM37.8457 13.3937C37.3119 13.5945 36.5395 13.8071 35.5286 14.0315C34.5178 14.2559 33.8135 14.4212 33.416 14.5275C33.0185 14.6338 32.655 14.8464 32.3029 15.1535C31.9508 15.4606 31.7691 15.8976 31.7691 16.4527C31.7691 17.0079 31.9735 17.5157 32.3938 17.9173C32.814 18.3189 33.3592 18.5197 34.0293 18.5197C34.7449 18.5197 35.4151 18.3543 36.017 18.0236C36.619 17.6929 37.0734 17.2795 37.3573 16.7598C37.6867 16.1929 37.8457 15.248 37.8457 13.937V13.3937Z" fill="black"/>
<path d="M46.9888 7.97249L49.9306 16.5591L53.0996 7.60635C53.3495 6.88588 53.588 6.378 53.8265 6.08273C54.065 5.78745 54.4285 5.63391 54.9169 5.63391C55.3826 5.63391 55.7688 5.79927 56.0982 6.11816C56.4275 6.43706 56.5866 6.81501 56.5866 7.24021C56.5866 7.40556 56.5525 7.59454 56.4957 7.81895C56.4389 8.04335 56.3708 8.24414 56.2912 8.44493C56.2117 8.64571 56.1322 8.85832 56.03 9.10635L52.543 18.1063C52.4408 18.3662 52.3158 18.6969 52.1682 19.0866C52.0205 19.4764 51.8388 19.8189 51.6457 20.1024C51.4526 20.3859 51.2141 20.5985 50.9415 20.7638C50.6689 20.9292 50.3282 21 49.9193 21C49.4081 21 48.9992 20.8819 48.6926 20.6339C48.3859 20.3859 48.1587 20.126 48.0111 19.8307C47.8634 19.5355 47.6135 18.9685 47.2728 18.1063L43.8085 9.20083C43.729 8.97642 43.6495 8.75202 43.5586 8.53942C43.4678 8.32682 43.3996 8.0906 43.3428 7.86619C43.286 7.64178 43.252 7.44099 43.252 7.27564C43.252 7.0158 43.3315 6.75595 43.4791 6.50792C43.6268 6.25989 43.8426 6.0473 44.1038 5.88194C44.3651 5.71659 44.6604 5.63391 44.967 5.63391C45.569 5.63391 45.9893 5.81108 46.2165 6.17722C46.4436 6.54336 46.6935 7.14572 46.9661 7.99611L46.9888 7.97249Z" fill="black"/>
<path d="M68.9787 14.2322H61.8684C61.8684 15.0944 62.0388 15.8503 62.3682 16.5C62.6976 17.1496 63.1179 17.6456 63.6631 17.9763C64.2083 18.307 64.7875 18.4724 65.4349 18.4724C65.8666 18.4724 66.2641 18.4251 66.6276 18.3188C66.991 18.2125 67.3318 18.0472 67.6725 17.8228C68.0133 17.5984 68.3199 17.3503 68.6039 17.0905C68.8879 16.8307 69.2513 16.4763 69.7057 16.0393C69.8874 15.874 70.16 15.7913 70.5007 15.7913C70.8756 15.7913 71.1709 15.8976 71.4094 16.1102C71.6479 16.3228 71.7501 16.6181 71.7501 17.0078C71.7501 17.3503 71.6252 17.7519 71.364 18.2007C71.1027 18.6496 70.7165 19.0984 70.1941 19.5118C69.6716 19.9251 69.0242 20.2795 68.2404 20.5511C67.4567 20.8228 66.5481 20.9645 65.5372 20.9645C63.2087 20.9645 61.3914 20.2677 60.0966 18.8858C58.8017 17.5039 58.1543 15.6259 58.1543 13.2519C58.1543 12.1299 58.3133 11.1023 58.6313 10.1456C58.9494 9.18894 59.4151 8.37398 60.0284 7.68894C60.6418 7.0039 61.3914 6.48422 62.2887 6.11808C63.186 5.75194 64.1742 5.57477 65.2646 5.57477C66.6844 5.57477 67.8997 5.88186 68.9219 6.50784C69.9442 7.13382 70.6938 7.93697 71.2049 8.91729C71.7161 9.8976 71.9659 10.9134 71.9659 11.9291C71.9659 12.874 71.7047 13.5 71.1822 13.7716C70.6598 14.0433 69.9215 14.1968 68.9674 14.1968L68.9787 14.2322ZM61.8684 12.0826H68.4562C68.3654 10.7952 68.036 9.82674 67.4567 9.17713C66.8775 8.52752 66.1051 8.22044 65.1623 8.22044C64.2196 8.22044 63.5154 8.55114 62.9361 9.20075C62.3569 9.85035 62.0047 10.8189 61.8798 12.0826H61.8684Z" fill="black"/>
<path d="M75.0332 18.685V2.29133C75.0332 1.53543 75.1922 0.9685 75.5216 0.578737C75.851 0.188974 76.2826 0 76.8278 0C77.373 0 77.8273 0.188974 78.1567 0.578737C78.4861 0.9685 78.6678 1.53543 78.6678 2.30315V18.6968C78.6678 19.4645 78.4975 20.0315 78.1567 20.4212C77.816 20.811 77.373 21 76.8278 21C76.2826 21 75.8624 20.7992 75.533 20.4094C75.2036 20.0197 75.0332 19.4409 75.0332 18.7086V18.685Z" fill="black"/>
<path d="M88.6853 12.7323H85.0621V18.4725C85.0621 19.2992 84.8803 19.9134 84.5055 20.3386C84.1307 20.7638 83.665 20.9764 83.0971 20.9764C82.5292 20.9764 82.018 20.7638 81.6546 20.3504C81.2911 19.937 81.1094 19.311 81.1094 18.5079V2.87012C81.1094 1.96067 81.3138 1.32287 81.7114 0.933112C82.1089 0.543348 82.745 0.35437 83.6196 0.35437H88.6853C90.1846 0.35437 91.3432 0.472479 92.1496 0.708699C92.9447 0.94492 93.6375 1.32287 94.2168 1.85437C94.7961 2.38586 95.2391 3.04728 95.5457 3.815C95.8524 4.58271 96.0001 5.45673 96.0001 6.42523C96.0001 8.49216 95.3867 10.063 94.16 11.126C92.9333 12.189 91.116 12.7205 88.6853 12.7205V12.7323ZM87.7199 3.43704H85.0621V9.63782H87.7199C88.6513 9.63782 89.435 9.53152 90.0597 9.33074C90.6844 9.12995 91.1614 8.79924 91.4908 8.33861C91.8202 7.87799 91.9792 7.27562 91.9792 6.51972C91.9792 5.62208 91.7294 4.8898 91.2182 4.33468C90.6503 3.73232 89.4804 3.43704 87.7199 3.43704Z" fill="#2D527C"/>
</svg>
